<svg  viewBox="0 0 310 70" fill="none" xmlns="http://www.w3.org/2000/svg">
<path d="M69.225 35C69.225 69.4195 69.225 69.675 69.955 69.675C70.685 69.675 70.685 69.4195 70.685 35C70.685 0.580489 70.685 0.324989 69.955 0.324989C69.225 0.324989 69.225 0.580489 69.225 35Z" fill="#F05454"/>
<path d="M6.9195 10.8005C4.985 11.4575 1.919 14.195 0.860495 16.166C0.0574951 17.626 0.0574951 17.918 0.0574951 31.8975V46.1325L0.969995 47.8845C2.0285 50.038 4.109 51.9725 6.4085 52.9945C7.8685 53.6515 8.9635 53.7975 14.767 53.907L21.41 54.053V59.309C21.41 62.1925 21.5195 64.565 21.6655 64.565C21.8115 64.565 24.33 62.1925 27.25 59.309C32.287 54.272 32.652 54.0165 34.55 53.6515C38.054 52.9215 40.609 50.9505 42.288 47.775C43.1275 46.1325 43.1275 46.096 43.1275 32.08C43.1275 18.8305 43.091 17.9545 42.3975 16.5675C41.266 14.268 38.638 11.859 36.2655 10.9465C34.258 10.2165 33.601 10.18 21.3005 10.2165C10.898 10.2165 8.1605 10.326 6.9195 10.8005ZM35.1705 16.75C37.616 18.21 37.6525 18.4655 37.6525 32.153C37.6525 43.979 37.616 44.49 36.886 45.439C36.4845 45.9865 35.6815 46.7895 35.134 47.191C34.185 47.921 33.601 47.9575 21.848 48.067C10.387 48.14 9.4745 48.1035 8.27 47.483C7.5765 47.0815 6.664 46.2055 6.2625 45.5485C5.569 44.3805 5.5325 43.6505 5.5325 32.08C5.5325 20.035 5.5325 19.816 6.372 18.5385C7.8685 16.0565 8.124 16.02 21.775 16.02C33.2725 16.02 34.0755 16.0565 35.1705 16.75Z" fill="#F05454"/>
<path d="M15.935 32.08V37.555H21.5925H27.2865L27.177 34.708L27.0675 31.8975L24.4395 31.788L21.775 31.6785V29.16V26.605H18.855H15.935V32.08Z" fill="#F05454"/>
<path d="M215.225 15.9105C212.086 16.4215 210.115 18.064 209.348 20.838C208.728 23.028 208.874 47.2275 209.494 48.943C210.151 50.768 211.246 52.009 213.071 52.958C215.225 54.0895 219.13 54.126 221.247 53.031C222.926 52.155 224.569 50.0015 224.897 48.14C225.043 47.4465 225.116 43.176 225.08 38.65C224.97 24.05 224.788 21.276 223.875 19.4875C222.525 16.7135 219.021 15.2535 215.225 15.9105ZM218.327 20.911C219.276 21.6045 219.495 24.2325 219.568 37.336C219.605 44.8185 219.495 47.994 219.203 48.359C218.729 48.943 216.575 49.0525 215.59 48.505C215.225 48.3225 214.823 47.702 214.714 47.1545C214.568 46.315 213.984 26.5685 214.093 25.3275C214.203 23.6485 214.641 21.6045 214.933 21.2395C215.225 20.8745 215.955 20.619 217.269 20.4365C217.451 20.4365 217.962 20.619 218.327 20.911Z" fill="#F05454"/>
<path d="M95.286 16.4945C94.848 16.75 94.775 19.305 94.775 34.781C94.8115 44.6725 94.9575 52.958 95.1035 53.2135C95.5415 53.907 99.1185 53.907 99.5565 53.2135C99.739 52.9215 99.8485 47.8115 99.812 40.767C99.739 34.2335 99.739 28.9045 99.7755 28.941C99.885 29.014 101.674 38.1025 103.17 45.95C104.63 53.761 104.594 53.688 106.528 53.542C107.952 53.4325 108.098 53.3595 108.353 52.155C108.682 50.5855 111.784 32.883 112.113 30.693C112.624 27.4445 112.806 29.817 112.733 38.577C112.697 43.541 112.806 48.9065 112.952 50.5125L113.208 53.4325H115.398H117.588L117.661 37.19C117.734 20.984 117.624 17.699 117.077 16.823C116.748 16.2755 111.967 15.8375 111.31 16.2755C110.945 16.531 109.85 21.6045 109.558 24.5975C109.485 25.1815 109.083 27.335 108.645 29.3425C108.244 31.35 107.733 33.905 107.514 35C107.331 36.095 106.966 37.92 106.747 39.015L106.346 41.0225L105.506 37.3725C105.032 35.365 104.594 33.102 104.484 32.372C104.411 31.6055 104.156 30.2185 103.937 29.2695C103.754 28.284 103.134 25.1085 102.586 22.1155C102.075 19.159 101.455 16.6405 101.272 16.4945C100.688 16.166 95.9065 16.166 95.286 16.4945Z" fill="#F05454"/>
<path d="M152.628 16.7865C152.482 17.2245 152.482 22.3345 152.628 28.211C152.774 34.051 152.81 38.7595 152.701 38.65C152.591 38.5405 151.423 34.197 150.109 28.9775C148.759 23.758 147.445 18.8305 147.226 18.0275L146.788 16.5675L144.16 16.458C139.707 16.2755 139.926 15.874 140.181 24.707C140.291 28.868 140.51 36.679 140.619 42.1175C140.765 47.5195 141.021 52.3375 141.167 52.7755C141.422 53.5055 141.751 53.615 143.284 53.615C144.379 53.615 145.218 53.4325 145.474 53.104C145.802 52.7025 145.875 49.4905 145.729 40.2195C145.583 31.861 145.62 28.2475 145.875 28.9775C146.204 29.9995 148.941 40.2925 151.241 49.0525L152.263 53.0675H155H157.738L157.701 48.14C157.701 45.439 157.665 37.409 157.628 30.328C157.555 22.371 157.409 17.1515 157.154 16.7135C156.862 16.166 156.387 16.02 154.818 16.02C153.139 16.02 152.81 16.1295 152.628 16.7865Z" fill="#F05454"/>
<path d="M166.023 16.385C164.308 17.0785 162.738 18.648 161.972 20.4C161.242 22.079 161.205 22.7725 161.205 35.073C161.205 47.848 161.205 47.9575 162.081 49.819C163.541 52.9945 165.804 54.1625 169.965 53.907C172.082 53.7975 172.703 53.615 173.871 52.666C174.637 52.0455 175.623 50.841 176.097 49.965C176.864 48.432 176.9 47.921 176.9 40.2925C176.9 34.489 176.791 32.1165 176.462 31.788C175.951 31.277 171.17 31.204 169.892 31.6785C169.089 31.9705 169.016 32.226 169.016 34.124L169.053 36.2775L170.257 36.387L171.425 36.4965V42.081C171.425 47.0815 171.352 47.702 170.695 48.3955C170.111 49.0525 169.783 49.1255 168.688 48.87C167.958 48.6875 167.228 48.4685 167.118 48.3225C166.972 48.1765 166.826 42.3365 166.753 35.292C166.68 23.685 166.717 22.444 167.264 21.8235C167.593 21.422 168.323 21.13 168.87 21.13C170.44 21.13 171.097 21.8965 171.352 24.05L171.608 26.0575H174.163H176.718L176.827 24.9625C177.229 21.787 174.966 17.6625 172.265 16.531C170.951 15.947 167.301 15.874 166.023 16.385Z" fill="#F05454"/>
<path d="M240.666 16.458C240.593 16.7135 240.593 21.787 240.666 27.7L240.775 38.4675L238.403 29.7075C237.125 24.8895 235.884 20.108 235.665 19.0495C235.446 18.0275 235.045 16.969 234.753 16.75C234.461 16.531 233.147 16.385 231.395 16.458L228.548 16.5675L228.511 23.685C228.475 37.847 228.949 52.447 229.424 53.031C230.154 53.907 232.563 53.7975 233.512 52.8485C234.242 52.1185 234.278 51.79 234.096 48.724C233.95 46.899 233.767 41.278 233.658 36.2775L233.475 27.1525L234.169 29.525C234.826 31.7515 237.709 42.7745 239.388 49.4175C239.79 51.0235 240.301 52.5565 240.52 52.812C240.775 53.1405 241.651 53.25 243.294 53.177L245.703 53.0675L245.593 35.1825C245.52 25.3275 245.411 17.0055 245.301 16.6405C245.155 16.1295 244.681 16.02 242.965 16.02C241.578 16.02 240.775 16.166 240.666 16.458Z" fill="#F05454"/>
<path d="M249.718 16.385C249.353 16.969 249.572 52.301 249.937 52.9945C250.265 53.5785 250.886 53.615 256.215 53.5785C259.427 53.5785 262.383 53.396 262.748 53.2135C263.223 52.958 263.405 52.4105 263.405 51.2425C263.405 48.505 263.442 48.505 259.171 48.505C257.091 48.505 255.375 48.4685 255.375 48.3955C255.375 48.359 255.266 41.351 255.156 32.81C255.01 24.269 254.755 17.0055 254.572 16.6405C254.317 16.166 253.769 16.02 252.09 16.02C250.922 16.02 249.864 16.166 249.718 16.385Z" fill="#F05454"/>
<path d="M266.727 16.458L265.851 16.9325L265.741 34.635C265.668 44.3805 265.705 52.6295 265.814 52.9945C265.997 53.5055 266.398 53.615 268.442 53.542L270.888 53.4325L271.107 45.22C271.399 35.1825 271.289 16.8595 270.961 16.531C270.486 16.0565 267.603 16.02 266.727 16.458Z" fill="#F05454"/>
<path d="M287.021 16.458C286.948 16.7135 286.948 21.787 287.057 27.7C287.13 33.613 287.13 38.3945 287.057 38.285C286.948 38.1755 285.67 33.4305 284.21 27.7C282.714 21.9695 281.363 17.0785 281.181 16.823C280.962 16.531 279.83 16.385 277.969 16.385C274.209 16.385 274.173 16.458 274.501 22.7725C274.647 25.364 274.903 33.1385 275.049 40.0005C275.231 49.4175 275.414 52.593 275.779 53.031C276.509 53.907 278.918 53.7975 279.867 52.8485C280.524 52.1915 280.597 51.79 280.414 50.184C280.305 49.162 280.122 43.541 280.013 37.7375L279.83 27.1525L280.706 30.255C281.473 33.029 283.663 41.3875 285.743 49.4175C286.145 51.0235 286.656 52.5565 286.875 52.812C287.13 53.1405 288.006 53.25 289.649 53.177L292.058 53.0675L291.948 35.1825C291.875 25.3275 291.766 17.0055 291.656 16.6405C291.51 16.1295 291.036 16.02 289.32 16.02C287.933 16.02 287.13 16.166 287.021 16.458Z" fill="#F05454"/>
<path d="M125.873 16.7135C125.581 16.896 124.924 20.108 124.157 25.5465C123.464 30.255 122.734 35.1095 122.515 36.387C122.296 37.6645 122.077 39.453 121.967 40.402C121.894 41.351 121.602 43.5045 121.274 45.22C120.982 46.9355 120.69 49.454 120.617 50.8775L120.507 53.4325H122.88H125.216L125.508 51.9725C125.617 51.1695 125.946 49.089 126.165 47.3005L126.603 44.125H129.085C131.968 44.125 131.676 43.687 132.37 49.235C132.954 53.4325 133.063 53.615 135.436 53.615C136.604 53.615 137.553 53.4325 137.772 53.1405C138.064 52.7755 137.845 50.184 136.896 43.541C136.202 38.5405 135.326 31.8245 134.925 28.6125C133.939 20.5825 133.282 17.0785 132.698 16.7135C132.041 16.312 126.493 16.312 125.873 16.7135ZM129.997 28.6125C130.107 30.2185 130.472 33.175 130.764 35.146C131.056 37.117 131.238 38.796 131.202 38.8325C131.129 38.869 130.216 39.015 129.158 39.088L127.26 39.2705L127.442 38.139C127.844 35.438 128.355 31.4595 128.318 30.8025C128.282 29.379 129.231 24.78 129.486 25.2545C129.632 25.4735 129.851 27.0065 129.997 28.6125Z" fill="#F05454"/>
<path d="M184.601 17.188C184.419 17.6625 183.871 21.13 183.324 24.9625C182.813 28.7585 182.192 32.81 182.01 33.905C181.572 36.314 180.988 40.4385 180.988 41.205C180.988 41.497 180.732 43.103 180.404 44.782C179.528 49.4905 179.309 52.958 179.893 53.2865C180.477 53.688 183.506 53.688 184.054 53.323C184.273 53.177 184.565 52.082 184.711 50.8775C184.857 49.673 185.149 47.6655 185.368 46.388L185.733 44.125H188.251C189.638 44.125 190.77 44.1615 190.77 44.2345C190.77 45.3295 191.974 52.4105 192.23 52.9215C192.558 53.469 193.033 53.615 194.566 53.615C195.697 53.615 196.683 53.4325 196.902 53.1405C197.157 52.8485 196.902 49.965 196.026 43.76C195.332 38.8325 194.456 32.1895 194.055 28.9775C192.96 20.1445 192.412 17.0785 191.828 16.7135C191.536 16.531 189.894 16.385 188.105 16.385C185.112 16.385 184.893 16.4215 184.601 17.188ZM189.127 29.379C189.675 34.1605 189.93 36.241 190.259 37.993C190.441 38.9055 190.405 38.942 188.434 39.088C187.302 39.1245 186.39 39.161 186.39 39.1245C186.39 39.088 186.609 37.263 186.901 35.1095C187.193 32.956 187.412 30.839 187.412 30.4375C187.448 29.379 188.361 24.415 188.507 24.561C188.58 24.634 188.835 26.824 189.127 29.379Z" fill="#F05454"/>
<path d="M296.109 16.6405C295.671 17.0785 296.292 52.6295 296.766 53.2135C297.095 53.615 298.299 53.688 303.117 53.542C309.724 53.323 309.76 53.323 309.76 50.987C309.76 48.5415 309.724 48.505 305.526 48.505H301.73L301.694 47.483C301.694 46.9355 301.584 44.2345 301.511 41.4605L301.329 36.46H304.468H307.57V34.3065C307.57 32.956 307.388 32.007 307.132 31.8245C306.877 31.6785 305.526 31.5325 304.103 31.5325H301.548L301.438 26.386L301.329 21.203H305.015C307.059 21.203 308.811 21.0935 308.921 20.984C309.322 20.619 309.359 17.7355 308.994 17.042C308.702 16.458 308.008 16.4215 302.497 16.4215C299.139 16.4215 296.255 16.531 296.109 16.6405Z" fill="#F05454"/>
</svg>
