<svg width="183" height="32" viewBox="0 0 183 32" fill="none" xmlns="http://www.w3.org/2000/svg">
<path d="M96.8927 0H4.50664C2.01769 0 0 2.01079 0 4.49123V27.5088C0 29.9892 2.01769 32 4.50664 32H96.8927C99.3816 32 101.399 29.9892 101.399 27.5088V4.49123C101.399 2.01079 99.3816 0 96.8927 0Z" fill="#222831"/>
<path d="M8.31789 21.9912L8.42351 23.9123C8.42351 24.0175 8.41473 24.2105 8.39709 24.4912C8.39709 24.7719 8.29152 25.0263 8.08028 25.2544C7.8866 25.4649 7.64015 25.5702 7.34085 25.5702C7.05919 25.5702 6.83915 25.5614 6.68074 25.5439C6.09978 25.5439 5.80933 25.2895 5.80933 24.7807C5.80933 24.3596 6.00294 22.6667 6.39029 19.7018C6.77752 16.7193 7.02403 14.7983 7.1296 13.9386C7.23528 13.079 7.32327 12.3596 7.39369 11.7807C7.48168 11.1842 7.54331 10.7456 7.57852 10.4649C7.61373 10.1842 7.66657 9.9035 7.73698 9.62279C7.8074 9.34209 7.91302 9.11405 8.05386 8.93861C8.31789 8.60525 8.82843 8.43857 9.58538 8.43857C10.8529 9.07015 12.1556 10.8597 13.4935 13.807C14.4441 15.9123 15.0778 17.2456 15.3947 17.807C15.7116 18.3684 16.0197 18.7544 16.319 18.9649L21.6002 9.80705C21.9698 9.54386 22.2515 9.41227 22.4452 9.41227C23.0085 9.41227 23.4398 9.6667 23.739 10.1754C24.0383 10.6842 24.2848 11.307 24.4784 12.0438C24.6897 12.7632 24.8657 13.5614 25.0065 14.4386C25.165 15.3158 25.297 16.2369 25.4027 17.2017C25.5259 18.1491 25.6403 19.079 25.7459 19.9912C25.9923 22.1842 26.1772 23.5614 26.3004 24.1228C26.4413 24.6842 26.5117 25.0877 26.5117 25.3333C26.5117 25.5614 26.4325 25.7895 26.274 26.0176C26.1156 26.2281 25.8956 26.3333 25.6139 26.3333C25.3322 26.3333 25.0506 26.2281 24.7689 26.0176C24.4872 25.7895 24.3112 25.5175 24.2407 25.2017C24.1879 24.8684 24.1263 24.4386 24.0559 23.9123C24.0031 23.3859 23.9327 22.7983 23.8447 22.1491C23.7567 21.4824 23.6686 20.7894 23.5806 20.0702C23.4926 19.3333 23.4046 18.6316 23.3165 17.9649C23.2285 17.2982 23.1493 16.7105 23.0789 16.2018C23.0085 15.6755 22.9557 15.2807 22.9205 15.0175C22.9205 14.6667 22.9117 14.3421 22.894 14.0438C22.8765 13.7456 22.806 13.5614 22.6828 13.4912C22.5596 13.421 22.3659 13.5088 22.1019 13.7544C21.8554 13.9824 21.5033 14.4561 21.0456 15.1754C20.0598 16.7018 18.6339 19.2719 16.7678 22.886C16.5214 23.3246 16.1957 23.4211 15.7908 23.1754C15.3155 22.9123 14.9106 22.2369 14.5761 21.1491L9.71742 10.8597C9.29493 11.7018 8.90764 14.4912 8.55556 19.2281C8.50277 19.807 8.46751 20.2982 8.44993 20.7018C8.36194 21.1403 8.31789 21.5702 8.31789 21.9912ZM41.9328 16.7544H42.6722C42.9714 16.7544 43.2531 16.7807 43.5172 16.8333C43.7989 16.886 43.9397 17.079 43.9397 17.4123C44.0629 18.114 43.6492 18.4561 42.6986 18.4386C42.4345 18.4211 42.1881 18.4035 41.9592 18.386C41.748 18.3684 41.572 18.3684 41.4311 18.386C41.2903 18.386 41.2287 18.4298 41.2463 18.5176C41.4223 19.0263 41.6072 19.5965 41.8008 20.228C42.012 20.8596 42.2409 21.4912 42.4874 22.1228C43.1211 23.6842 43.7197 24.807 44.283 25.4912C43.9837 25.8596 43.6316 26.1667 43.2267 26.4123C42.8394 26.6579 42.6282 26.7807 42.593 26.7807C42.5754 26.7807 42.5578 26.7719 42.5402 26.7544L38.8169 18.9386L31.6081 20.7018L31.344 21.807C30.8335 23.8246 30.2614 25.2281 29.6276 26.0176C29.5219 26.193 29.3019 26.2105 28.9675 26.0702C28.4041 25.8596 28.1225 25.6842 28.1225 25.5439C28.1225 25.5088 28.3073 25 28.677 24.0175C29.0467 23.0351 29.4164 22.0438 29.786 21.0439C30.1733 20.0263 30.5694 18.9649 30.9743 17.8596C31.3968 16.7544 31.7929 15.7018 32.1626 14.7018C32.5323 13.7017 32.8668 12.807 33.166 12.0175C33.4653 11.2106 33.6765 10.6316 33.7998 10.2807C33.923 9.91225 34.0022 9.59652 34.0374 9.33333C34.0902 9.05263 34.1606 8.81578 34.2487 8.62282C34.4247 8.21929 34.8648 8.01752 35.569 8.01752C36.326 8.43857 36.9069 8.99122 37.3118 9.67545C37.7343 10.3421 38.0864 11.0614 38.368 11.8333C38.6673 12.6053 38.9577 13.386 39.2394 14.1754C39.521 14.9649 39.8995 15.6842 40.3749 16.3334C40.5333 16.5789 40.771 16.7105 41.0878 16.7281C41.4047 16.7456 41.6864 16.7544 41.9328 16.7544ZM35.3313 11.0702C35.1905 12.1404 34.8736 13.2368 34.3807 14.3596C33.8878 15.4824 33.4917 16.3596 33.1924 16.9912C32.8931 17.6053 32.6379 18.1754 32.4266 18.7018C33.6237 18.7018 35.0937 18.3509 36.8364 17.6491C37.2766 17.4562 37.6991 17.2807 38.1039 17.1228C37.2766 13.5965 36.3523 11.5789 35.3313 11.0702ZM60.8131 17.0965C60.8131 22.4298 60.5928 25.5526 60.1529 26.4649L58.2252 26.307C57.2574 24.6403 55.6288 22.2983 53.3402 19.2807C52.4425 18.0877 51.5446 16.9035 50.6468 15.7281C49.7667 14.5526 48.9568 13.386 48.2175 12.228C47.8654 13.7895 47.6893 16.9123 47.6893 21.5965C47.6893 23.3859 47.6542 24.8948 47.5838 26.1228C47.2493 26.4386 46.8796 26.5965 46.4747 26.5965C46.0874 26.5965 45.8145 26.5526 45.6561 26.4649C45.4976 26.3947 45.4184 26.2719 45.4184 26.0965C45.4184 25.9035 45.436 25.614 45.4713 25.2281C45.5241 24.8246 45.5768 24.1579 45.6297 23.2281C45.7001 22.2983 45.7617 21.3158 45.8145 20.2807C45.9553 17.5789 46.0258 15.2544 46.0258 13.307C46.0258 11.3421 46.0082 9.72806 45.973 8.4649C46.3603 8.11402 46.6595 7.85965 46.8707 7.70178C47.082 7.54386 47.3197 7.55262 47.5838 7.72806C47.8478 7.88598 48.1822 8.24562 48.5872 8.80702C49.0097 9.35085 49.5994 10.1667 50.3564 11.2544C52.9442 14.921 55.4879 18.3596 57.988 21.5702L58.4894 8.4649C58.6831 8.11402 58.8769 7.87717 59.0702 7.75439C59.2639 7.61404 59.5191 7.54386 59.8363 7.54386C60.452 7.54386 60.7601 8.10526 60.7601 9.22807L60.7337 10.2018L60.8131 17.0965ZM74.8085 27.6755V22.8597C73.1359 24 71.9743 24.7544 71.3226 25.1228C69.8089 25.9474 68.4794 26.3596 67.3353 26.3596C65.9625 26.3596 64.7829 25.8596 63.7971 24.8596C62.7938 23.8246 62.2918 22.6403 62.2918 21.307C62.3797 19.9035 62.6794 18.4825 63.1898 17.0439C64.246 13.9912 65.9974 11.7544 68.4445 10.3333C69.6591 9.61404 71.0589 9.2544 72.643 9.2544C72.6785 9.2544 72.7134 9.2544 72.7489 9.2544L73.4615 9.22807C74.2716 9.22807 74.6411 9.54386 74.5707 10.1754C73.1624 10.2456 71.842 10.5702 70.61 11.1491C69.3774 11.7281 68.3037 12.5087 67.3883 13.4912C66.4903 14.4561 65.7777 15.5877 65.2493 16.886C64.7389 18.1842 64.4838 19.5088 64.4838 20.8596C64.4838 22.2105 64.8358 23.1842 65.54 23.7807C66.2442 24.3772 67.1506 24.6754 68.2597 24.6754C69.2101 24.6754 70.5305 24.2632 72.2205 23.4386C73.2942 22.9123 74.0953 22.3158 74.6237 21.6491C74.8879 21.3333 75.0197 21 75.0197 20.6491V16.7544C74.4913 16.7544 73.2593 16.9561 71.3226 17.3597C69.4039 17.7631 68.2947 17.9912 67.9955 18.0438C67.9077 17.9912 67.8018 17.9386 67.679 17.886C67.5556 17.8158 67.4852 17.7193 67.4677 17.5965C67.4322 17.3333 67.8198 16.9298 68.6293 16.386C68.8231 16.2807 69.9847 16.0789 72.1152 15.7807C74.2451 15.4649 75.6005 15.2632 76.1813 15.1754C76.7626 15.0877 77.2465 15.0175 77.6335 14.9649C77.8099 15 78.0301 15 78.2938 14.9649C78.558 14.9123 78.8047 14.8947 79.0334 14.9123C79.5968 14.9299 79.861 15.2368 79.8255 15.8333L77.6335 16.7281C77.2995 17.7982 77.1322 19.8158 77.1322 22.7807L77.1851 26.7018C77.1851 27.0526 77.1851 27.3772 77.1851 27.6755C76.6567 27.9386 76.1464 28.0702 75.6534 28.0702C75.1605 28.0702 74.8789 27.9386 74.8085 27.6755ZM94.93 16.7544H95.6691C95.9682 16.7544 96.2499 16.7807 96.5141 16.8333C96.7958 16.886 96.9366 17.079 96.9366 17.4123C97.06 18.114 96.6459 18.4561 95.6956 18.4386C95.4314 18.4211 95.1852 18.4035 94.9559 18.386C94.7452 18.3684 94.5689 18.3684 94.4281 18.386C94.2873 18.386 94.2259 18.4298 94.2433 18.5176C94.4191 19.0263 94.6044 19.5965 94.7976 20.228C95.0089 20.8596 95.2376 21.4912 95.4843 22.1228C96.1181 23.6842 96.7169 24.807 97.2802 25.4912C96.9805 25.8596 96.6285 26.1667 96.2234 26.4123C95.8364 26.6579 95.6252 26.7807 95.5902 26.7807C95.5722 26.7807 95.5547 26.7719 95.5373 26.7544L91.8137 18.9386L84.6053 20.7018L84.3411 21.807C83.8302 23.8246 83.2584 25.2281 82.6246 26.0176C82.5187 26.193 82.299 26.2105 81.9644 26.0702C81.4011 25.8596 81.1194 25.6842 81.1194 25.5439C81.1194 25.5088 81.3042 25 81.6737 24.0175C82.0439 23.0351 82.4134 22.0438 82.7829 21.0439C83.1705 20.0263 83.5665 18.9649 83.971 17.8596C84.3935 16.7544 84.7901 15.7018 85.1596 14.7018C85.5292 13.7017 85.8638 12.807 86.1629 12.0175C86.4621 11.2106 86.6733 10.6316 86.7967 10.2807C86.92 9.91225 86.9995 9.59652 87.0344 9.33333C87.0873 9.05263 87.1578 8.81578 87.2456 8.62282C87.422 8.21929 87.8619 8.01752 88.5661 8.01752C89.3226 8.43857 89.904 8.99122 90.3085 9.67545C90.731 10.3421 91.0836 11.0614 91.3653 11.8333C91.6644 12.6053 91.9545 13.386 92.2362 14.1754C92.5178 14.9649 92.8964 15.6842 93.3718 16.3334C93.5301 16.5789 93.7679 16.7105 94.085 16.7281C94.4016 16.7456 94.6833 16.7544 94.93 16.7544ZM88.3284 11.0702C88.1875 12.1404 87.8704 13.2368 87.3775 14.3596C86.8845 15.4824 86.4885 16.3596 86.1894 16.9912C85.8903 17.6053 85.6351 18.1754 85.4238 18.7018C86.6209 18.7018 88.0906 18.3509 89.8336 17.6491C90.2735 17.4562 90.696 17.2807 91.1011 17.1228C90.2735 13.5965 89.3491 11.5789 88.3284 11.0702Z" fill="#F05454"/>
<path d="M108.402 6.39102C111.07 6.39102 113.387 7.35214 115.352 9.27439C117.317 11.1966 118.299 13.586 118.299 16.4424C118.299 19.2808 117.362 21.7061 115.487 23.7182C113.612 25.7123 111.305 26.7093 108.565 26.7093C105.825 26.7093 103.49 25.7213 101.561 23.7451C99.6506 21.769 98.6952 19.4156 98.6952 16.6849C98.6952 15.1938 98.9656 13.8015 99.5064 12.5081C100.047 11.1966 100.768 10.1008 101.67 9.22049C102.571 8.34021 103.607 7.64856 104.779 7.14554C105.951 6.64253 107.159 6.39102 108.402 6.39102ZM103.481 16.5502C103.481 18.1491 103.995 19.4515 105.023 20.4575C106.068 21.4456 107.231 21.9397 108.511 21.9397C109.791 21.9397 110.944 21.4546 111.972 20.4845C112.999 19.5144 113.513 18.2119 113.513 16.5771C113.513 14.9423 112.99 13.6309 111.945 12.6428C110.917 11.6547 109.763 11.1607 108.484 11.1607C107.204 11.1607 106.05 11.6637 105.023 12.6698C103.995 13.6578 103.481 14.9513 103.481 16.5502ZM127.99 12.1847C129.793 12.1847 131.289 12.8764 132.479 14.2596C133.686 15.625 134.29 17.2957 134.29 19.2719V24.0146C134.29 24.4278 134.272 24.7422 134.236 24.9578C134.218 25.1554 134.146 25.3799 134.02 25.6314C133.768 26.1165 133.064 26.359 131.911 26.359C130.631 26.359 129.892 26.0267 129.694 25.362C129.585 25.0566 129.531 24.5985 129.531 23.9876V19.2449C129.531 18.5084 129.315 17.9335 128.882 17.5203C128.468 17.1071 127.9 16.9005 127.179 16.9005C126.476 16.9005 125.899 17.1161 125.448 17.5472C125.016 17.9784 124.799 18.5443 124.799 19.2449V24.0146C124.799 24.4278 124.781 24.7422 124.745 24.9578C124.727 25.1554 124.646 25.3799 124.502 25.6314C124.268 26.1165 123.574 26.359 122.42 26.359C121.284 26.359 120.59 26.1165 120.338 25.6314C120.212 25.362 120.13 25.1284 120.094 24.9308C120.076 24.7152 120.067 24.4008 120.067 23.9876V14.4483C120.067 14.0531 120.076 13.7566 120.094 13.559C120.13 13.3434 120.221 13.1099 120.365 12.8584C120.617 12.4093 121.311 12.1847 122.447 12.1847C123.546 12.1847 124.222 12.3913 124.475 12.8045C124.655 13.1099 124.745 13.4782 124.745 13.9093C124.817 13.7836 124.98 13.6039 125.232 13.3704C125.484 13.1368 125.728 12.9482 125.962 12.8045C126.575 12.3913 127.251 12.1847 127.99 12.1847ZM136.465 7.87312C136.465 7.45993 136.474 7.15453 136.492 6.95691C136.528 6.74133 136.61 6.49881 136.736 6.22933C136.988 5.74428 137.691 5.50175 138.845 5.50175C139.944 5.50175 140.629 5.74428 140.9 6.22933C141.044 6.49881 141.125 6.74133 141.143 6.95691C141.179 7.17249 141.197 7.48688 141.197 7.90007V20.3767C141.197 21.0234 141.251 21.4366 141.36 21.6163C141.468 21.778 141.702 21.8588 142.063 21.8588C142.441 21.8588 142.693 21.8768 142.82 21.9127C142.946 21.9307 143.099 22.0025 143.279 22.1283C143.64 22.3618 143.82 22.9996 143.82 24.0415C143.82 25.1733 143.64 25.865 143.279 26.1165C142.811 26.4399 141.693 26.4938 139.926 26.2782C138.538 26.0985 137.637 25.6404 137.222 24.9039C136.718 24.0236 136.465 22.6223 136.465 20.7001V7.87312ZM145.311 14.5561C145.311 14.1429 145.32 13.8375 145.338 13.6399C145.374 13.4243 145.455 13.1818 145.582 12.9123C145.834 12.4452 146.537 12.2116 147.691 12.2116C148.556 12.2116 149.169 12.3644 149.529 12.6698C149.836 12.9213 149.998 13.3075 150.016 13.8285C150.034 14.0081 150.043 14.2686 150.043 14.61V24.0415C150.043 24.4547 150.025 24.7691 149.989 24.9847C149.971 25.1823 149.89 25.4159 149.746 25.6853C149.511 26.1524 148.817 26.386 147.664 26.386C146.528 26.386 145.834 26.1434 145.582 25.6584C145.455 25.3889 145.374 25.1554 145.338 24.9578C145.32 24.7601 145.311 24.4458 145.311 24.0146V14.5561ZM149.746 9.57081C149.62 9.82232 149.385 10.002 149.043 10.1098C148.7 10.2175 148.241 10.2714 147.664 10.2714C147.105 10.2714 146.654 10.2175 146.312 10.1098C145.969 10.002 145.726 9.81333 145.582 9.54386C145.455 9.27439 145.374 9.04084 145.338 8.84323C145.32 8.62765 145.311 8.31326 145.311 7.90007C145.311 7.48688 145.32 7.18147 145.338 6.98386C145.374 6.76828 145.455 6.53474 145.582 6.28323C145.834 5.79818 146.537 5.55565 147.691 5.55565C148.826 5.55565 149.511 5.79818 149.746 6.28323C149.89 6.5527 149.971 6.79523 149.989 7.01081C150.025 7.20842 150.043 7.51382 150.043 7.92702C150.043 8.34021 150.025 8.6546 149.989 8.87018C149.971 9.06779 149.89 9.30133 149.746 9.57081ZM160.126 12.1847C161.929 12.1847 163.425 12.8764 164.615 14.2596C165.823 15.625 166.427 17.2957 166.427 19.2719V24.0146C166.427 24.4278 166.409 24.7422 166.372 24.9578C166.354 25.1554 166.282 25.3799 166.156 25.6314C165.904 26.1165 165.201 26.359 164.047 26.359C162.767 26.359 162.028 26.0267 161.83 25.362C161.722 25.0566 161.668 24.5985 161.668 23.9876V19.2449C161.668 18.5084 161.451 17.9335 161.019 17.5203C160.604 17.1071 160.036 16.9005 159.315 16.9005C158.612 16.9005 158.035 17.1161 157.585 17.5472C157.152 17.9784 156.936 18.5443 156.936 19.2449V24.0146C156.936 24.4278 156.918 24.7422 156.881 24.9578C156.863 25.1554 156.782 25.3799 156.638 25.6314C156.404 26.1165 155.71 26.359 154.556 26.359C153.42 26.359 152.726 26.1165 152.474 25.6314C152.348 25.362 152.267 25.1284 152.231 24.9308C152.213 24.7152 152.204 24.4008 152.204 23.9876V14.4483C152.204 14.0531 152.213 13.7566 152.231 13.559C152.267 13.3434 152.357 13.1099 152.501 12.8584C152.753 12.4093 153.447 12.1847 154.583 12.1847C155.683 12.1847 156.359 12.3913 156.611 12.8045C156.791 13.1099 156.881 13.4782 156.881 13.9093C156.954 13.7836 157.116 13.6039 157.368 13.3704C157.621 13.1368 157.864 12.9482 158.098 12.8045C158.711 12.3913 159.387 12.1847 160.126 12.1847ZM182.338 17.6011C182.338 18.697 182.058 19.5144 181.5 20.0533C180.959 20.5743 180.355 20.8348 179.688 20.8348H173.279C173.279 21.3378 173.577 21.76 174.172 22.1013C174.767 22.4427 175.362 22.6133 175.956 22.6133C177.002 22.6133 177.822 22.5055 178.417 22.29L178.714 22.1822C179.147 21.9846 179.508 21.8858 179.796 21.8858C180.373 21.8858 180.869 22.29 181.283 23.0984C181.518 23.5834 181.635 23.9966 181.635 24.338C181.635 25.9368 179.715 26.7363 175.875 26.7363C174.541 26.7363 173.352 26.5117 172.306 26.0626C171.278 25.5955 170.476 24.9847 169.899 24.2302C168.764 22.775 168.196 21.1492 168.196 19.3527C168.196 17.0891 168.926 15.2836 170.386 13.9363C171.864 12.5709 173.703 11.8883 175.902 11.8883C178.408 11.8883 180.247 12.7686 181.418 14.5291C182.031 15.4633 182.338 16.4873 182.338 17.6011ZM176.632 18.3826C177.317 18.3826 177.66 18.0952 177.66 17.5203C177.66 17.1071 177.498 16.7747 177.173 16.5232C176.867 16.2717 176.416 16.146 175.821 16.146C175.244 16.146 174.667 16.3885 174.091 16.8735C173.514 17.3406 173.225 17.8436 173.225 18.3826H176.632Z" fill="#222831"/>
</svg>
